<svg width="97" height="39" viewBox="0 0 97 39" fill="none" xmlns="http://www.w3.org/2000/svg">
<rect width="87.6986" height="19.25" fill="#FFFA81"/>
<rect y="19.25" width="87.6986" height="19.25" fill="#415A89"/>
<path d="M11.2945 5.70625V14.6438H3.9863V5.70625H5.31506V13.3513H9.96575V5.70625H11.2945Z" fill="#2F21CA"/>
<path d="M13.6925 5.70625H15.008V8.9375C15.6635 8.0575 16.4741 7.30583 17.4396 6.6825C18.4141 6.05917 19.3265 5.71542 20.1769 5.65125L20.5888 6.94375C19.9865 6.98958 19.4417 7.11333 18.9544 7.315C18.4761 7.5075 17.9357 7.83292 17.3333 8.29125C17.9889 8.91458 18.671 9.78083 19.3797 10.89C20.0972 11.99 20.7837 13.2413 21.4392 14.6438H19.9244C19.3132 13.3879 18.6975 12.2971 18.0775 11.3713C17.4574 10.4362 16.8639 9.69833 16.2969 9.1575C15.8806 9.55167 15.5617 9.93667 15.3402 10.3125C15.1187 10.6883 15.008 11.0321 15.008 11.3438V14.6438H13.6925V5.70625Z" fill="#2F21CA"/>
<path d="M22.1613 10.175C22.1613 9.08417 22.3429 8.19042 22.7061 7.49375C23.0693 6.79708 23.5477 6.29292 24.1412 5.98125C24.7347 5.66042 25.3858 5.5 26.0945 5.5C26.6526 5.5 27.1664 5.61 27.6359 5.83C28.1054 6.04083 28.4774 6.35708 28.752 6.77875C29.0355 7.19125 29.1772 7.67708 29.1772 8.23625C29.1772 8.80458 29.0355 9.29042 28.752 9.69375C28.4774 10.0879 28.0832 10.395 27.5694 10.615C28.1452 10.7617 28.5704 10.9679 28.845 11.2338C29.1285 11.4904 29.2702 11.8663 29.2702 12.3613V14.6438H27.9415V12.265C27.9415 12.0908 27.782 11.935 27.4631 11.7975C27.1531 11.6508 26.7854 11.5363 26.3602 11.4537C25.935 11.3712 25.5896 11.33 25.3238 11.33C24.9872 11.33 24.3715 11.4033 23.4768 11.55V14.6438H22.1613V10.175ZM26.2008 9.96875C26.7854 9.87708 27.2018 9.68458 27.4498 9.39125C27.7067 9.08875 27.8352 8.73125 27.8352 8.31875C27.8352 7.83292 27.6669 7.4525 27.3302 7.1775C26.9936 6.9025 26.5684 6.765 26.0546 6.765C25.6117 6.765 25.1954 6.87042 24.8056 7.08125C24.4158 7.28292 24.0969 7.60833 23.8489 8.0575C23.6008 8.4975 23.4768 9.05667 23.4768 9.735V10.3675L26.2008 9.96875Z" fill="#2F21CA"/>
<path d="M36.0787 11.7563C35.4763 12.5629 34.7367 13.2779 33.8597 13.9012C32.9827 14.5154 32.1013 14.8225 31.2154 14.8225C30.9497 14.8225 30.7282 14.7537 30.5511 14.6162C30.3827 14.4696 30.2986 14.2817 30.2986 14.0525C30.2986 13.365 30.4492 12.6317 30.7504 11.8525C31.0516 11.0733 31.4989 10.3125 32.0924 9.57C32.6859 8.8275 33.399 8.18583 34.2317 7.645L33.3547 5.70625H34.8297L38.8558 14.6438H37.3809L36.0787 11.7563ZM31.6406 13.255C31.6406 13.3467 31.6628 13.4154 31.7071 13.4613C31.7602 13.4979 31.8267 13.5071 31.9064 13.4887C32.5442 13.3329 33.1909 12.9754 33.8464 12.4163C34.5019 11.8479 35.0556 11.2063 35.5074 10.4913L34.7632 8.8275C33.8951 9.41417 33.1997 10.0879 32.6771 10.8487C32.1544 11.6096 31.8134 12.3796 31.6539 13.1588L31.6406 13.255Z" fill="#2F21CA"/>
<path d="M40.1251 14.6438V5.70625H41.4539V14.6438H40.1251Z" fill="#2F21CA"/>
<path d="M43.8493 14.6438V5.70625H45.1781V7.15L49.8288 9.11625V5.70625H51.1575V14.6438H49.8288V10.5463L45.1781 8.58V14.6438H43.8493Z" fill="#2F21CA"/>
<path d="M53.5555 14.6438V5.70625H54.8843V14.6438H53.5555Z" fill="#2F21CA"/>
<path d="M62.3556 11.7563C61.7532 12.5629 61.0135 13.2779 60.1366 13.9012C59.2596 14.5154 58.3782 14.8225 57.4923 14.8225C57.2266 14.8225 57.0051 14.7537 56.8279 14.6162C56.6596 14.4696 56.5755 14.2817 56.5755 14.0525C56.5755 13.365 56.7261 12.6317 57.0272 11.8525C57.3284 11.0733 57.7758 10.3125 58.3693 9.57C58.9628 8.8275 59.6759 8.18583 60.5086 7.645L59.6316 5.70625H61.1066L65.1327 14.6438H63.6578L62.3556 11.7563ZM57.9175 13.255C57.9175 13.3467 57.9397 13.4154 57.984 13.4613C58.0371 13.4979 58.1036 13.5071 58.1833 13.4887C58.8211 13.3329 59.4678 12.9754 60.1233 12.4163C60.7788 11.8479 61.3325 11.2063 61.7842 10.4913L61.0401 8.8275C60.172 9.41417 59.4766 10.0879 58.954 10.8487C58.4313 11.6096 58.0903 12.3796 57.9308 13.1588L57.9175 13.255Z" fill="#2F21CA"/>
<path d="M66.402 14.6438V5.70625H67.7308V7.15L72.3815 9.11625V5.70625H73.7102V14.6438H72.3815V10.5463L67.7308 8.58V14.6438H66.402Z" fill="#2F21CA"/>
<path d="M81.7156 12.4438C81.7156 12.1596 81.6359 11.9304 81.4765 11.7563C81.3259 11.5729 81.0911 11.4217 80.7722 11.3025C80.4533 11.1833 79.9971 11.0596 79.4036 10.9312C78.7392 10.7937 78.1767 10.6333 77.716 10.45C77.2554 10.2575 76.8656 9.96875 76.5467 9.58375C76.2278 9.19875 76.0684 8.69 76.0684 8.0575C76.0684 7.55333 76.2013 7.11333 76.467 6.7375C76.7328 6.3525 77.1092 6.05458 77.5965 5.84375C78.0925 5.63292 78.6772 5.5275 79.3504 5.5275C80.1654 5.5275 80.8564 5.70625 81.4233 6.06375C81.9991 6.42125 82.3623 6.9025 82.5129 7.5075L81.2639 8.1125C81.1841 7.70917 80.9715 7.39292 80.6261 7.16375C80.2894 6.93458 79.8642 6.82 79.3504 6.82C78.7126 6.82 78.2298 6.92083 77.9021 7.1225C77.5743 7.32417 77.4104 7.65417 77.4104 8.1125C77.4104 8.56167 77.6142 8.90542 78.0217 9.14375C78.438 9.38208 79.036 9.57458 79.8155 9.72125C80.4533 9.84958 81.0025 10.0008 81.4632 10.175C81.9238 10.3492 82.3047 10.6104 82.6059 10.9587C82.916 11.3071 83.071 11.7654 83.071 12.3337C83.071 13.1129 82.8097 13.7271 82.287 14.1762C81.7732 14.6254 81.0956 14.85 80.254 14.85C79.9705 14.85 79.6826 14.8088 79.3903 14.7263C79.098 14.6529 78.7613 14.5429 78.3804 14.3962C78.0704 14.2771 77.8091 14.19 77.5965 14.135C77.3927 14.0708 77.2023 14.0388 77.0251 14.0388C76.8834 14.0388 76.7726 14.0983 76.6929 14.2175C76.6132 14.3275 76.5733 14.4696 76.5733 14.6438C76.5733 14.7262 76.5777 14.7904 76.5866 14.8363L75.404 14.6438C75.3863 14.4788 75.3774 14.3596 75.3774 14.2863C75.3774 13.8004 75.5103 13.42 75.7761 13.145C76.0418 12.8608 76.4493 12.7188 76.9985 12.7188C77.22 12.7188 77.4414 12.7554 77.6629 12.8287C77.8932 12.8929 78.1944 12.9938 78.5665 13.1313C78.9385 13.2779 79.2574 13.3879 79.5232 13.4613C79.7889 13.5346 80.0503 13.5713 80.3071 13.5713C80.7589 13.5713 81.1044 13.475 81.3436 13.2825C81.5916 13.09 81.7156 12.8104 81.7156 12.4438Z" fill="#2F21CA"/>
<path d="M8.26493 25.9875V32.8625H7.01589V25.9875H8.26493ZM6.24521 24.6812C6.3958 24.3879 6.49767 24.1588 6.55082 23.9937C6.61283 23.8196 6.64384 23.6546 6.64384 23.4987C6.64384 23.4162 6.62169 23.3521 6.5774 23.3062C6.53311 23.2512 6.48439 23.2237 6.43124 23.2237C6.35151 23.2237 6.28507 23.2742 6.23192 23.375C6.18763 23.4667 6.17434 23.6042 6.19206 23.7875L5.34165 23.54C5.32393 23.43 5.31507 23.3475 5.31507 23.2925C5.31507 22.9533 5.43466 22.6783 5.67384 22.4675C5.90416 22.2475 6.20092 22.1375 6.56411 22.1375C6.90073 22.1375 7.17535 22.2475 7.38795 22.4675C7.60941 22.6783 7.72014 22.9533 7.72014 23.2925C7.72014 23.7783 7.55183 24.3604 7.21521 25.0388L6.24521 24.6812ZM8.88945 22L10.0455 22.4262L8.8363 25.025L7.85302 24.6538L8.88945 22Z" fill="#FFFA81"/>
<path d="M16.2363 25.9875V32.8625H14.9873V27.225H11.6388V32.8625H10.3897V25.9875H16.2363Z" fill="#FFFA81"/>
<path d="M20.9508 28.3938C20.9508 27.3029 21.1324 26.4092 21.4956 25.7125C21.8588 25.0158 22.3372 24.5117 22.9307 24.2C23.5242 23.8792 24.1753 23.7188 24.884 23.7188C25.4421 23.7188 25.9558 23.8242 26.4253 24.035C26.8948 24.2367 27.2669 24.53 27.5415 24.915C27.825 25.3 27.9667 25.7583 27.9667 26.29C27.9667 26.8125 27.8161 27.2617 27.5149 27.6375C27.2226 28.0133 26.8151 28.3067 26.2925 28.5175C26.886 28.6825 27.3289 28.8979 27.6212 29.1638C27.9136 29.4204 28.0597 29.8008 28.0597 30.305C28.0597 30.7267 28.0376 31.1117 27.9933 31.46C27.9578 31.7992 27.8958 32.2667 27.8073 32.8625H20.9508V28.3938ZM26.6379 31.6112C26.7 31.1804 26.731 30.8046 26.731 30.4838C26.731 30.1812 26.5759 29.9292 26.2659 29.7275C25.9558 29.5167 25.5926 29.3608 25.1763 29.26C24.7688 29.1592 24.4233 29.1088 24.1399 29.1088C23.8032 29.1088 23.1787 29.1821 22.2663 29.3287V31.6112H26.6379ZM24.9903 27.775C26.0799 27.61 26.6247 27.1425 26.6247 26.3725C26.6247 25.9325 26.4563 25.5933 26.1197 25.355C25.7831 25.1075 25.3579 24.9838 24.8441 24.9838C24.4012 24.9838 23.9848 25.0892 23.5951 25.3C23.2053 25.5017 22.8864 25.8271 22.6384 26.2762C22.3903 26.7162 22.2663 27.2754 22.2663 27.9537V28.1737L24.9903 27.775Z" fill="#FFFA81"/>
<path d="M33.7764 33.0413C32.8906 33.0413 32.111 32.8442 31.4378 32.45C30.7734 32.0467 30.2596 31.4921 29.8964 30.7863C29.5332 30.0804 29.3516 29.2829 29.3516 28.3938C29.3516 27.5504 29.5199 26.7712 29.8566 26.0562C30.1932 25.3412 30.6671 24.7729 31.2783 24.3513C31.8896 23.9296 32.585 23.7188 33.3645 23.7188C33.7454 23.7279 34.0732 23.7783 34.3478 23.87C34.6313 23.9617 34.9236 24.0854 35.2248 24.2412C35.3842 24.3329 35.5171 24.4017 35.6234 24.4475C35.7386 24.4842 35.8449 24.5025 35.9423 24.5025C36.0663 24.5025 36.1505 24.4704 36.1948 24.4063C36.2391 24.3421 36.2612 24.2092 36.2612 24.0075V23.705L37.5368 24.035C37.5723 24.6033 37.4438 25.0387 37.1515 25.3412C36.868 25.6346 36.4694 25.7812 35.9556 25.7812C35.7519 25.7812 35.5481 25.7492 35.3444 25.685C35.1406 25.6208 34.897 25.5246 34.6136 25.3962C34.3389 25.2679 34.0953 25.1717 33.8827 25.1075C33.679 25.0342 33.4708 24.9975 33.2582 24.9975C32.5673 24.9975 31.9959 25.2404 31.5441 25.7262C31.0923 26.2029 30.831 26.8492 30.7601 27.665H34.68V28.9575H30.7601C30.8133 29.4983 30.9683 29.9796 31.2252 30.4012C31.491 30.8229 31.8409 31.1529 32.2749 31.3912C32.709 31.6296 33.2095 31.7487 33.7764 31.7487C34.494 31.7487 35.1008 31.5425 35.5968 31.13C36.0929 30.7175 36.4118 30.1537 36.5536 29.4387L37.7627 29.8375C37.6653 30.4517 37.4305 31.0017 37.0585 31.4875C36.6953 31.9733 36.2258 32.3538 35.65 32.6287C35.0831 32.9038 34.4585 33.0413 33.7764 33.0413Z" fill="#FFFA81"/>
<path d="M40.6327 31.57H43.9413V30.3325H45.2568V32.8625H39.3039V23.925H40.6327V31.57Z" fill="#FFFA81"/>
<path d="M50.4651 33.0413C49.6236 33.0413 48.8617 32.8442 48.1796 32.45C47.4975 32.0467 46.9616 31.4921 46.5718 30.7863C46.1821 30.0804 45.9872 29.2829 45.9872 28.3938C45.9872 27.5504 46.1555 26.7712 46.4921 26.0562C46.8287 25.3412 47.3027 24.7729 47.9139 24.3513C48.5251 23.9296 49.2205 23.7188 50.0001 23.7188C50.381 23.7279 50.7087 23.7783 50.9833 23.87C51.2668 23.9617 51.5591 24.0854 51.8603 24.2412C52.0198 24.3329 52.1527 24.4017 52.259 24.4475C52.3741 24.4842 52.4804 24.5025 52.5779 24.5025C52.7019 24.5025 52.786 24.4704 52.8303 24.4063C52.8746 24.3421 52.8968 24.2092 52.8968 24.0075V23.705L54.1724 24.035C54.1901 24.5942 54.0616 25.0296 53.787 25.3412C53.5124 25.6438 53.1005 25.795 52.5513 25.795C52.3564 25.795 52.1659 25.7629 51.9799 25.6988C51.7939 25.6346 51.5503 25.5383 51.2491 25.41C50.9656 25.2817 50.7176 25.1854 50.505 25.1212C50.3012 25.0571 50.0975 25.025 49.8937 25.025C49.3977 25.025 48.9592 25.1671 48.5783 25.4512C48.1974 25.7262 47.9006 26.1204 47.688 26.6337C47.4843 27.1379 47.3824 27.7246 47.3824 28.3938C47.3824 29.0354 47.5153 29.6129 47.781 30.1262C48.0468 30.6304 48.4144 31.0292 48.8839 31.3225C49.3534 31.6067 49.8805 31.7487 50.4651 31.7487C51.0143 31.7487 51.4971 31.625 51.9135 31.3775C52.3298 31.13 52.6487 30.7863 52.8702 30.3463C53.0917 29.8971 53.2024 29.3929 53.2024 28.8337V28.71H51.4351V29.535H50.2392V27.5H54.385V32.8625H53.2024V31.8175C52.8658 32.2025 52.4627 32.505 51.9932 32.725C51.5237 32.9358 51.0143 33.0413 50.4651 33.0413Z" fill="#FFFA81"/>
<path d="M56.6142 32.8625V23.925H57.943V32.8625H56.6142Z" fill="#FFFA81"/>
<path d="M67.6466 23.925V32.8625H60.3384V23.925H61.6671V31.57H66.3178V23.925H67.6466Z" fill="#FFFA81"/>
<path d="M70.6426 23.925H72.7154C73.3178 27.5825 73.7784 30.1767 74.0974 31.7075C74.4251 33.2292 74.6643 33.99 74.8149 33.99C74.9655 33.99 75.2002 33.2292 75.5191 31.7075C75.8469 30.1767 76.312 27.5825 76.9143 23.925H78.9872L79.9174 32.8625H78.562L77.8445 25.4238C77.8179 25.6163 77.7869 25.8225 77.7515 26.0425C77.716 26.2533 77.6806 26.4779 77.6452 26.7162C77.2377 29.2646 76.9188 31.1025 76.6884 32.23C76.467 33.3483 76.2101 34.1917 75.9178 34.76C75.6343 35.3283 75.2578 35.6125 74.7883 35.6125C74.3188 35.6125 73.9379 35.3283 73.6456 34.76C73.3621 34.1917 73.1052 33.3483 72.8749 32.23C72.6534 31.1025 72.3389 29.2646 71.9315 26.7162C71.896 26.4779 71.8606 26.2533 71.8252 26.0425C71.7897 25.8225 71.7587 25.6163 71.7321 25.4238L71.0146 32.8625H69.7124L70.6426 23.925Z" fill="#FFFA81"/>
</svg>
